<svg width="163" height="32" viewBox="0 0 163 32" fill="none" xmlns="http://www.w3.org/2000/svg">
<rect x="1" y="1" width="161" height="30" rx="15" fill="#FFFEFA"/>
<path d="M25.998 14.0041C23.791 14.0041 21.9961 16.2464 21.9961 19.0024C21.9961 21.7584 23.791 24 25.998 24C28.2051 24 30 21.7584 30 19.0024C30 16.2464 28.2051 14.0041 25.998 14.0041ZM23.3301 19.0024C23.3301 17.1633 24.3206 15.6367 25.6072 15.3762C25.8606 15.7566 26.4309 16.9234 25.4224 18.6692C24.554 20.1738 24.5627 21.4079 24.7955 22.2735C23.9264 21.6685 23.3294 20.4291 23.3294 19.0024H23.3301ZM26.3929 22.6273C26.1395 22.2462 25.5712 21.0807 26.5783 19.3356C27.4461 17.833 27.4381 16.6002 27.206 15.7346C28.0717 16.341 28.666 17.5784 28.666 19.0024C28.666 20.8389 27.6775 22.3641 26.3929 22.6273ZM22.3343 8.99589C21.5405 8.20294 20.4013 7.8671 19.1327 8.04768C17.9328 8.21893 16.7449 8.8393 15.7884 9.79551C13.7634 11.8185 13.4039 14.7525 14.988 16.335C15.641 16.9874 16.5268 17.3312 17.5286 17.3312C17.744 17.3312 17.9648 17.3152 18.1896 17.2832C19.3895 17.112 20.5774 16.4916 21.5339 15.5354C23.5589 13.5124 23.9184 10.5785 22.3343 8.99589ZM16.7322 10.7377C17.4859 9.98475 18.4057 9.49832 19.3215 9.36705C19.4809 9.34439 19.6363 9.3324 19.787 9.3324C20.2719 9.3324 20.7068 9.44901 21.0616 9.67356C20.9162 10.1553 20.3693 11.3681 18.443 12.0344C16.7422 12.6235 15.8498 13.5857 15.3842 14.376C15.1341 13.2765 15.6203 11.8479 16.7322 10.7377ZM20.5907 14.5925C19.837 15.3455 18.9173 15.8319 18.0015 15.9632C17.3265 16.0592 16.7255 15.9505 16.2613 15.656C16.4067 15.1736 16.9536 13.9622 18.8799 13.2952C20.5807 12.7061 21.4732 11.7439 21.9387 10.9536C22.1889 12.0531 21.7026 13.4824 20.5907 14.5925Z" fill="#36342F"/>
<path d="M39.224 21.144C35.912 21.144 33.88 18.872 33.88 15.352V15.224C33.88 11.832 36.152 9.384 39.256 9.384C41.64 9.384 43.656 10.648 43.896 13.128H42.52C42.232 11.384 41.224 10.488 39.272 10.488C36.904 10.488 35.32 12.328 35.32 15.208V15.336C35.32 18.248 36.792 20.008 39.256 20.008C41.128 20.008 42.424 19.064 42.712 17.208H44.008C43.608 19.848 41.784 21.144 39.224 21.144ZM49.5195 20.04C51.1995 20.04 52.2555 18.776 52.2555 16.888V16.776C52.2555 14.84 51.1835 13.592 49.5195 13.592C47.8395 13.592 46.7835 14.84 46.7835 16.76V16.888C46.7835 18.792 47.8235 20.04 49.5195 20.04ZM49.5035 21.144C47.1195 21.144 45.4075 19.336 45.4075 16.888V16.76C45.4075 14.248 47.1515 12.488 49.5195 12.488C51.8875 12.488 53.6315 14.232 53.6315 16.744V16.872C53.6315 19.4 51.8875 21.144 49.5035 21.144ZM55.9758 21V13.752H54.7758V12.632H55.9758V11.384C55.9758 9.688 56.8078 8.696 58.4718 8.696C58.9038 8.696 59.1278 8.744 59.4638 8.856V9.976C59.2238 9.88 58.8878 9.8 58.5198 9.8C57.6558 9.8 57.3038 10.392 57.3038 11.24V12.632H60.5838V11.272C60.5838 9.576 61.4158 8.584 63.0798 8.584C63.5118 8.584 63.7358 8.632 64.0718 8.744V9.864C63.8318 9.768 63.4958 9.688 63.1278 9.688C62.2638 9.688 61.9118 10.28 61.9118 11.128V12.632H63.9598V13.752H61.9118V21H60.5838V13.752H57.3038V21H55.9758ZM68.8461 21.144C66.4781 21.144 64.7981 19.48 64.7981 16.904V16.776C64.7981 14.248 66.4141 12.488 68.7181 12.488C70.6541 12.488 72.4781 13.656 72.4781 16.648V17.08H66.1741C66.2381 18.984 67.1501 20.04 68.8621 20.04C70.1581 20.04 70.9101 19.56 71.0861 18.584H72.4141C72.1261 20.264 70.7341 21.144 68.8461 21.144ZM66.2221 16.008H71.1181C70.9901 14.28 70.0941 13.592 68.7181 13.592C67.3581 13.592 66.4461 14.52 66.2221 16.008ZM77.9399 21.144C75.5719 21.144 73.8919 19.48 73.8919 16.904V16.776C73.8919 14.248 75.5079 12.488 77.8119 12.488C79.7479 12.488 81.5719 13.656 81.5719 16.648V17.08H75.2679C75.3319 18.984 76.2439 20.04 77.9559 20.04C79.2519 20.04 80.0039 19.56 80.1799 18.584H81.5079C81.2199 20.264 79.8279 21.144 77.9399 21.144ZM75.3159 16.008H80.2119C80.0839 14.28 79.1879 13.592 77.8119 13.592C76.4519 13.592 75.5399 14.52 75.3159 16.008ZM91.188 24.056C88.708 24.056 87.62 22.888 87.396 21.48H88.756C88.948 22.44 89.748 22.936 91.172 22.936C92.82 22.936 93.86 22.152 93.86 20.36V19.144C93.38 19.96 92.244 20.728 91.028 20.728C88.836 20.728 87.22 19.064 87.22 16.76V16.648C87.22 14.376 88.82 12.488 91.124 12.488C92.516 12.488 93.38 13.16 93.86 13.976V12.632H95.188V20.44C95.172 22.872 93.524 24.056 91.188 24.056ZM91.172 19.624C92.724 19.624 93.908 18.536 93.908 16.664V16.552C93.908 14.68 92.884 13.592 91.252 13.592C89.588 13.592 88.596 14.824 88.596 16.584V16.712C88.596 18.536 89.764 19.624 91.172 19.624ZM97.8753 21V12.632H99.2033V14.136C99.7313 13.192 100.451 12.536 101.955 12.488V13.736C100.275 13.816 99.2033 14.344 99.2033 16.408V21H97.8753ZM107.145 20.04C108.825 20.04 109.881 18.776 109.881 16.888V16.776C109.881 14.84 108.809 13.592 107.145 13.592C105.465 13.592 104.409 14.84 104.409 16.76V16.888C104.409 18.792 105.449 20.04 107.145 20.04ZM107.129 21.144C104.745 21.144 103.033 19.336 103.033 16.888V16.76C103.033 14.248 104.777 12.488 107.145 12.488C109.513 12.488 111.257 14.232 111.257 16.744V16.872C111.257 19.4 109.513 21.144 107.129 21.144ZM116.145 21.144C114.481 21.144 113.233 20.232 113.233 17.928V12.632H114.561V17.864C114.561 19.336 115.185 19.992 116.497 19.992C117.681 19.992 118.801 19.208 118.801 17.704V12.632H120.129V21H118.801V19.672C118.417 20.456 117.489 21.144 116.145 21.144ZM122.813 21V12.632H124.141V13.96C124.525 13.176 125.453 12.488 126.829 12.488C128.557 12.488 129.773 13.432 129.773 15.864V21H128.445V15.768C128.445 14.296 127.821 13.64 126.477 13.64C125.245 13.64 124.141 14.424 124.141 15.928V21H122.813ZM135.527 21.144C133.335 21.144 131.751 19.592 131.751 16.984V16.856C131.751 14.296 133.351 12.488 135.655 12.488C137.047 12.488 137.911 13.16 138.391 13.976V8.632H139.719V21H138.391V19.56C137.911 20.376 136.743 21.144 135.527 21.144ZM135.671 20.04C137.223 20.04 138.439 19.016 138.439 16.872V16.744C138.439 14.6 137.415 13.592 135.783 13.592C134.119 13.592 133.127 14.76 133.127 16.792V16.92C133.127 19.032 134.263 20.04 135.671 20.04ZM144.999 21.144C142.999 21.144 141.799 20.136 141.719 18.424H143.015C143.111 19.416 143.639 20.04 144.983 20.04C146.247 20.04 146.807 19.608 146.807 18.712C146.807 17.832 146.151 17.544 144.855 17.304C142.679 16.904 141.943 16.296 141.943 14.84C141.943 13.288 143.463 12.488 144.775 12.488C146.279 12.488 147.575 13.096 147.799 14.904H146.519C146.327 13.992 145.815 13.592 144.759 13.592C143.799 13.592 143.174 14.072 143.174 14.792C143.174 15.544 143.591 15.848 145.127 16.12C146.855 16.44 148.071 16.824 148.071 18.6C148.071 20.12 147.031 21.144 144.999 21.144Z" fill="#36342F"/>
<rect x="1" y="1" width="161" height="30" rx="15" stroke="#36342F" stroke-width="2"/>
</svg>
