<svg width="36" height="36" viewBox="0 0 36 36" fill="none" xmlns="http://www.w3.org/2000/svg">
<g clip-path="url(#clip0_130_1663)">
<path d="M17.5193 25L17.0697 24.583C16.45 24.0213 11.0386 18.9635 11.0386 15.2637C11.0386 11.3902 13.9401 8.25 17.5193 8.25C21.0985 8.25 24 11.3902 24 15.2637C24 18.9635 18.5886 24.0214 17.9714 24.5857L17.5193 25ZM17.5193 9.76658C14.7153 9.77001 12.4431 12.2292 12.4399 15.2637C12.4399 17.588 15.7692 21.3009 17.5193 23.0003C19.2694 21.3002 22.5987 17.5851 22.5987 15.2637C22.5955 12.2292 20.3233 9.77004 17.5193 9.76658Z" fill="#FFFEFA" stroke="#FFFEFA" stroke-width="15"/>
<path d="M17.9368 36.012L16.8912 35.1157C15.4497 33.9088 2.86328 23.0387 2.86328 15.0874C2.86328 6.76258 9.61195 0.013916 17.9368 0.013916C26.2617 0.013916 33.0103 6.76258 33.0103 15.0874C33.0103 23.0387 20.4239 33.9088 18.9884 35.1217L17.9368 36.012ZM17.9368 3.27325C11.4151 3.28063 6.13007 8.56567 6.12269 15.0874C6.12269 20.0825 13.8663 28.0621 17.9368 31.7144C22.0073 28.0607 29.7509 20.0765 29.7509 15.0874C29.7435 8.56567 24.4586 3.2807 17.9368 3.27325Z" fill="#18945C"/>
</g>
<path d="M21.998 13.0041C19.791 13.0041 17.9961 15.2464 17.9961 18.0024C17.9961 20.7584 19.791 23 21.998 23C24.2051 23 26 20.7584 26 18.0024C26 15.2464 24.2051 13.0041 21.998 13.0041ZM19.3301 18.0024C19.3301 16.1633 20.3206 14.6367 21.6072 14.3762C21.8606 14.7566 22.4309 15.9234 21.4224 17.6692C20.554 19.1738 20.5627 20.4079 20.7955 21.2735C19.9264 20.6685 19.3294 19.4291 19.3294 18.0024H19.3301ZM22.3929 21.6273C22.1395 21.2462 21.5712 20.0807 22.5783 18.3356C23.4461 16.833 23.4381 15.6002 23.206 14.7346C24.0717 15.341 24.666 16.5784 24.666 18.0024C24.666 19.8389 23.6775 21.3641 22.3929 21.6273ZM18.3343 7.99589C17.5405 7.20294 16.4013 6.8671 15.1327 7.04768C13.9328 7.21893 12.7449 7.8393 11.7884 8.79551C9.76342 10.8185 9.40391 13.7525 10.988 15.335C11.641 15.9874 12.5268 16.3312 13.5286 16.3312C13.744 16.3312 13.9648 16.3152 14.1896 16.2832C15.3895 16.112 16.5774 15.4916 17.5339 14.5354C19.5589 12.5124 19.9184 9.57846 18.3343 7.99589ZM12.7322 9.73772C13.4859 8.98475 14.4057 8.49832 15.3215 8.36705C15.4809 8.34439 15.6363 8.3324 15.787 8.3324C16.2719 8.3324 16.7068 8.44901 17.0616 8.67356C16.9162 9.15533 16.3693 10.3681 14.443 11.0344C12.7422 11.6235 11.8498 12.5857 11.3842 13.376C11.1341 12.2765 11.6203 10.8479 12.7322 9.73772ZM16.5907 13.5925C15.837 14.3455 14.9173 14.8319 14.0015 14.9632C13.3265 15.0592 12.7255 14.9505 12.2613 14.656C12.4067 14.1736 12.9536 12.9622 14.8799 12.2952C16.5807 11.7061 17.4732 10.7439 17.9387 9.95361C18.1889 11.0531 17.7026 12.4824 16.5907 13.5925Z" fill="#18945C"/>
<defs>
<clipPath id="clip0_130_1663">
<rect width="36" height="36" fill="white"/>
</clipPath>
</defs>
</svg>
