<svg width="137" height="32" viewBox="0 0 137 32" fill="none" xmlns="http://www.w3.org/2000/svg">
<rect x="1" y="1" width="135" height="30" rx="15" fill="#FFFEFA"/>
<path d="M28.3744 11.6279H26.7567L28.1911 10.1935C28.3051 10.0755 28.3681 9.91745 28.3667 9.75342C28.3653 9.58939 28.2995 9.43249 28.1835 9.3165C28.0675 9.20051 27.9106 9.13472 27.7466 9.1333C27.5826 9.13187 27.4245 9.19493 27.3065 9.30888L25.8721 10.7433V9.12558C25.8721 8.95967 25.8062 8.80055 25.6888 8.68323C25.5715 8.56591 25.4124 8.5 25.2465 8.5C25.0806 8.5 24.9215 8.56591 24.8041 8.68323C24.6868 8.80055 24.6209 8.95967 24.6209 9.12558V11.9132C24.1088 11.3681 23.5044 10.9178 22.8355 10.5832C22.3658 10.376 21.8414 10.328 21.3419 10.4463C20.8424 10.5647 20.3953 10.843 20.0685 11.2388C18.9688 12.3386 15.9034 17.9595 14.1736 21.2113C14.0216 21.5071 13.9674 21.8436 14.0189 22.1723C14.0704 22.5009 14.2249 22.8047 14.4601 23.0399C14.6953 23.2751 14.9991 23.4296 15.3277 23.4811C15.6564 23.5326 15.9929 23.4784 16.2887 23.3264C19.5418 21.5972 25.1614 18.5312 26.2612 17.4315C26.6569 17.1048 26.9352 16.6578 27.0536 16.1584C27.1721 15.6591 27.1243 15.1348 26.9174 14.6651C26.5824 13.9962 26.1319 13.3915 25.5868 12.8791H28.3744C28.5403 12.8791 28.6995 12.8132 28.8168 12.6959C28.9341 12.5785 29 12.4194 29 12.2535C29 12.0876 28.9341 11.9285 28.8168 11.8112C28.6995 11.6938 28.5403 11.6279 28.3744 11.6279ZM25.3766 16.5469C24.9294 16.9296 24.4494 17.2723 23.9421 17.571L22.5609 16.1903C22.4429 16.0764 22.2848 16.0133 22.1208 16.0147C21.9568 16.0162 21.7999 16.0819 21.6839 16.1979C21.5679 16.3139 21.5021 16.4708 21.5007 16.6349C21.4993 16.7989 21.5623 16.9569 21.6763 17.0749L22.8461 18.2441C21.1283 19.2719 18.6616 20.6476 15.7013 22.2216C15.6422 22.2529 15.5746 22.2645 15.5084 22.2546C15.4422 22.2446 15.3809 22.2138 15.3336 22.1664C15.2862 22.1191 15.2554 22.0578 15.2454 21.9916C15.2355 21.9254 15.2471 21.8578 15.2784 21.7987C16.2306 20.0089 17.107 18.4055 17.8809 17.033L19.1739 18.3261C19.2919 18.44 19.45 18.5031 19.614 18.5016C19.778 18.5002 19.9349 18.4344 20.0509 18.3184C20.1669 18.2024 20.2327 18.0455 20.2341 17.8815C20.2355 17.7175 20.1725 17.5595 20.0585 17.4415L18.5221 15.905C19.204 14.7233 19.777 13.7781 20.2168 13.1131L21.6763 14.5725C21.7943 14.6865 21.9523 14.7496 22.1163 14.7481C22.2803 14.7467 22.4372 14.6809 22.5532 14.5649C22.6692 14.4489 22.735 14.292 22.7364 14.128C22.7379 13.964 22.6748 13.806 22.5609 13.688L20.9763 12.1034C21.5061 11.6098 21.8308 11.5266 22.3419 11.733C23.0514 12.1379 23.6875 12.6594 24.2237 13.2757C24.8402 13.812 25.3619 14.4484 25.767 15.1581C25.9228 15.5209 25.9834 15.9407 25.3766 16.5469Z" fill="#36342F"/>
<path d="M33.44 21V9.56H40.128V10.696H34.832V14.744H38.96V15.88H34.832V21H33.44ZM45.082 20.04C46.762 20.04 47.818 18.776 47.818 16.888V16.776C47.818 14.84 46.746 13.592 45.082 13.592C43.402 13.592 42.346 14.84 42.346 16.76V16.888C42.346 18.792 43.386 20.04 45.082 20.04ZM45.066 21.144C42.682 21.144 40.97 19.336 40.97 16.888V16.76C40.97 14.248 42.714 12.488 45.082 12.488C47.45 12.488 49.194 14.232 49.194 16.744V16.872C49.194 19.4 47.45 21.144 45.066 21.144ZM54.7383 20.04C56.4183 20.04 57.4743 18.776 57.4743 16.888V16.776C57.4743 14.84 56.4023 13.592 54.7383 13.592C53.0583 13.592 52.0023 14.84 52.0023 16.76V16.888C52.0023 18.792 53.0423 20.04 54.7383 20.04ZM54.7223 21.144C52.3383 21.144 50.6263 19.336 50.6263 16.888V16.76C50.6263 14.248 52.3703 12.488 54.7383 12.488C57.1063 12.488 58.8503 14.232 58.8503 16.744V16.872C58.8503 19.4 57.1063 21.144 54.7223 21.144ZM64.0585 21.144C61.8665 21.144 60.2825 19.592 60.2825 16.984V16.856C60.2825 14.296 61.8825 12.488 64.1865 12.488C65.5785 12.488 66.4425 13.16 66.9225 13.976V8.632H68.2505V21H66.9225V19.56C66.4425 20.376 65.2745 21.144 64.0585 21.144ZM64.2025 20.04C65.7545 20.04 66.9705 19.016 66.9705 16.872V16.744C66.9705 14.6 65.9465 13.592 64.3145 13.592C62.6505 13.592 61.6585 14.76 61.6585 16.792V16.92C61.6585 19.032 62.7945 20.04 64.2025 20.04ZM77.7641 21.144C75.7641 21.144 74.5641 20.136 74.4841 18.424H75.7801C75.8761 19.416 76.4041 20.04 77.7481 20.04C79.0121 20.04 79.5721 19.608 79.5721 18.712C79.5721 17.832 78.9161 17.544 77.6201 17.304C75.4441 16.904 74.7081 16.296 74.7081 14.84C74.7081 13.288 76.2281 12.488 77.5401 12.488C79.0441 12.488 80.3401 13.096 80.5641 14.904H79.2841C79.0921 13.992 78.5801 13.592 77.5241 13.592C76.5641 13.592 75.9401 14.072 75.9401 14.792C75.9401 15.544 76.3561 15.848 77.8921 16.12C79.6201 16.44 80.8361 16.824 80.8361 18.6C80.8361 20.12 79.7961 21.144 77.7641 21.144ZM86.3316 21.144C83.9956 21.144 82.2356 19.496 82.2356 16.904V16.776C82.2356 14.216 84.0596 12.488 86.2996 12.488C88.0436 12.488 89.6756 13.288 89.9316 15.416H88.6196C88.4116 14.088 87.4516 13.592 86.2996 13.592C84.7796 13.592 83.6116 14.808 83.6116 16.776V16.904C83.6116 18.952 84.7316 20.04 86.3476 20.04C87.5316 20.04 88.6036 19.352 88.7476 17.992H89.9796C89.8036 19.8 88.3476 21.144 86.3316 21.144ZM91.9846 21V12.632H93.3126V14.136C93.8406 13.192 94.5606 12.536 96.0646 12.488V13.736C94.3846 13.816 93.3126 14.344 93.3126 16.408V21H91.9846ZM100.018 21.144C98.4661 21.144 97.2341 20.392 97.2341 18.68C97.2341 16.744 99.2821 16.088 101.426 16.088H102.626V15.48C102.626 14.152 102.114 13.592 100.834 13.592C99.6821 13.592 99.0421 14.072 98.9141 15.096H97.5861C97.7621 13.192 99.2821 12.488 100.898 12.488C102.498 12.488 103.954 13.144 103.954 15.48V21H102.626V19.944C102.002 20.728 101.25 21.144 100.018 21.144ZM100.146 20.088C101.554 20.088 102.626 19.368 102.626 18.072V17.032H101.474C99.7941 17.032 98.5621 17.448 98.5621 18.68C98.5621 19.544 98.9781 20.088 100.146 20.088ZM106.563 23.912V12.632H107.891V14.04C108.371 13.224 109.507 12.488 110.723 12.488C112.915 12.488 114.531 14.088 114.531 16.696V16.824C114.531 19.384 113.027 21.144 110.723 21.144C109.347 21.144 108.371 20.456 107.891 19.624V23.912H106.563ZM110.595 20.04C112.259 20.04 113.155 18.92 113.155 16.888V16.76C113.155 14.648 111.987 13.592 110.579 13.592C109.027 13.592 107.843 14.616 107.843 16.76V16.888C107.843 19.032 108.963 20.04 110.595 20.04ZM119.186 21.144C117.186 21.144 115.986 20.136 115.906 18.424H117.202C117.298 19.416 117.826 20.04 119.17 20.04C120.434 20.04 120.994 19.608 120.994 18.712C120.994 17.832 120.338 17.544 119.042 17.304C116.866 16.904 116.13 16.296 116.13 14.84C116.13 13.288 117.65 12.488 118.962 12.488C120.466 12.488 121.762 13.096 121.986 14.904H120.706C120.514 13.992 120.002 13.592 118.946 13.592C117.986 13.592 117.362 14.072 117.362 14.792C117.362 15.544 117.778 15.848 119.314 16.12C121.042 16.44 122.258 16.824 122.258 18.6C122.258 20.12 121.218 21.144 119.186 21.144Z" fill="#36342F"/>
<rect x="1" y="1" width="135" height="30" rx="15" stroke="#36342F" stroke-width="2"/>
</svg>
