<svg width="36" height="36" viewBox="0 0 36 36" fill="none" xmlns="http://www.w3.org/2000/svg">
<g clip-path="url(#clip0_130_1676)">
<path d="M17.5193 25L17.0697 24.583C16.45 24.0213 11.0386 18.9635 11.0386 15.2637C11.0386 11.3902 13.9401 8.25 17.5193 8.25C21.0985 8.25 24 11.3902 24 15.2637C24 18.9635 18.5886 24.0214 17.9714 24.5857L17.5193 25ZM17.5193 9.76658C14.7153 9.77001 12.4431 12.2292 12.4399 15.2637C12.4399 17.588 15.7692 21.3009 17.5193 23.0003C19.2694 21.3002 22.5987 17.5851 22.5987 15.2637C22.5955 12.2292 20.3233 9.77004 17.5193 9.76658Z" fill="#FFFEFA" stroke="#FFFEFA" stroke-width="15"/>
<path d="M17.9368 36.012L16.8912 35.1157C15.4497 33.9088 2.86328 23.0387 2.86328 15.0874C2.86328 6.76258 9.61195 0.013916 17.9368 0.013916C26.2617 0.013916 33.0103 6.76258 33.0103 15.0874C33.0103 23.0387 20.4239 33.9088 18.9884 35.1217L17.9368 36.012ZM17.9368 3.27325C11.4151 3.28063 6.13007 8.56567 6.12269 15.0874C6.12269 20.0825 13.8663 28.0621 17.9368 31.7144C22.0073 28.0607 29.7509 20.0765 29.7509 15.0874C29.7435 8.56567 24.4586 3.2807 17.9368 3.27325Z" fill="#18945C"/>
</g>
<path d="M25.3744 10.1279H23.7567L25.1911 8.69346C25.3051 8.57547 25.3681 8.41745 25.3667 8.25342C25.3653 8.08939 25.2995 7.93249 25.1835 7.8165C25.0675 7.70051 24.9106 7.63472 24.7466 7.6333C24.5826 7.63187 24.4245 7.69493 24.3065 7.80888L22.8721 9.24335V7.62558C22.8721 7.45967 22.8062 7.30055 22.6888 7.18323C22.5715 7.06591 22.4124 7 22.2465 7C22.0806 7 21.9215 7.06591 21.8041 7.18323C21.6868 7.30055 21.6209 7.45967 21.6209 7.62558V10.4132C21.1088 9.86806 20.5044 9.4178 19.8355 9.0832C19.3658 8.87604 18.8414 8.82798 18.3419 8.94633C17.8424 9.06468 17.3953 9.34295 17.0685 9.73881C15.9688 10.8386 12.9034 16.4595 11.1736 19.7113C11.0216 20.0071 10.9674 20.3436 11.0189 20.6723C11.0704 21.0009 11.2249 21.3047 11.4601 21.5399C11.6953 21.7751 11.9991 21.9296 12.3277 21.9811C12.6564 22.0326 12.9929 21.9784 13.2887 21.8264C16.5418 20.0972 22.1614 17.0312 23.2612 15.9315C23.6569 15.6048 23.9352 15.1578 24.0536 14.6584C24.1721 14.1591 24.1243 13.6348 23.9174 13.1651C23.5824 12.4962 23.1319 11.8915 22.5868 11.3791H25.3744C25.5403 11.3791 25.6995 11.3132 25.8168 11.1959C25.9341 11.0785 26 10.9194 26 10.7535C26 10.5876 25.9341 10.4285 25.8168 10.3112C25.6995 10.1938 25.5403 10.1279 25.3744 10.1279ZM22.3766 15.0469C21.9294 15.4296 21.4494 15.7723 20.9421 16.071L19.5609 14.6903C19.4429 14.5764 19.2848 14.5133 19.1208 14.5147C18.9568 14.5162 18.7999 14.5819 18.6839 14.6979C18.5679 14.8139 18.5021 14.9708 18.5007 15.1349C18.4993 15.2989 18.5623 15.4569 18.6763 15.5749L19.8461 16.7441C18.1283 17.7719 15.6616 19.1476 12.7013 20.7216C12.6422 20.7529 12.5746 20.7645 12.5084 20.7546C12.4422 20.7446 12.3809 20.7138 12.3336 20.6664C12.2862 20.6191 12.2554 20.5578 12.2454 20.4916C12.2355 20.4254 12.2471 20.3578 12.2784 20.2987C13.2306 18.5089 14.107 16.9055 14.8809 15.533L16.1739 16.8261C16.2919 16.94 16.45 17.0031 16.614 17.0016C16.778 17.0002 16.9349 16.9344 17.0509 16.8184C17.1669 16.7024 17.2327 16.5455 17.2341 16.3815C17.2355 16.2175 17.1725 16.0595 17.0585 15.9415L15.5221 14.405C16.204 13.2233 16.777 12.2781 17.2168 11.6131L18.6763 13.0725C18.7943 13.1865 18.9523 13.2496 19.1163 13.2481C19.2803 13.2467 19.4373 13.1809 19.5532 13.0649C19.6692 12.9489 19.735 12.792 19.7364 12.628C19.7379 12.464 19.6748 12.306 19.5609 12.188L17.9763 10.6034C18.5061 10.1098 18.8308 10.0266 19.3419 10.233C20.0514 10.6379 20.6875 11.1594 21.2237 11.7757C21.8402 12.312 22.3619 12.9484 22.767 13.6581C22.9228 14.0209 22.9834 14.4407 22.3766 15.0469Z" fill="#18945C"/>
<defs>
<clipPath id="clip0_130_1676">
<rect width="36" height="36" fill="white"/>
</clipPath>
</defs>
</svg>
