<svg width="54" height="41" viewBox="0 0 54 41" fill="none" xmlns="http://www.w3.org/2000/svg">
<path d="M19.6229 11.1736C18.1767 11.1736 17 12.3503 17 13.7965V16.8506C17 18.2969 18.1767 19.4736 19.623 19.4736C21.0693 19.4736 22.2459 18.2969 22.2459 16.8506V13.7965C22.2459 12.3503 21.0692 11.1736 19.6229 11.1736ZM20.7245 16.8506C20.7245 17.458 20.2303 17.9522 19.6229 17.9522C19.0156 17.9522 18.5214 17.458 18.5214 16.8506V13.7965C18.5214 13.1891 19.0156 12.695 19.623 12.695C20.2304 12.695 20.7245 13.1891 20.7245 13.7965V16.8506Z" fill="#18945C"/>
<path d="M26.7367 0C25.2904 0 24.1138 1.17667 24.1138 2.62296V16.8506C24.1138 18.2969 25.2904 19.4736 26.7367 19.4736C28.183 19.4736 29.3597 18.2969 29.3597 16.8506V2.62296C29.3597 1.17667 28.183 0 26.7367 0ZM27.8383 16.8506C27.8383 17.458 27.3441 17.9522 26.7367 17.9522C26.1293 17.9522 25.6351 17.458 25.6351 16.8506V2.62296C25.6351 2.01551 26.1293 1.52137 26.7367 1.52137C27.3441 1.52137 27.8383 2.01551 27.8383 2.62296V16.8506Z" fill="#18945C"/>
<path d="M33.8509 5.58691C32.4047 5.58691 31.228 6.76358 31.228 8.20987V16.8507C31.228 18.297 32.4047 19.4737 33.851 19.4737C35.2972 19.4737 36.4739 18.297 36.4739 16.8508V8.20987C36.4739 6.76358 35.2972 5.58691 33.8509 5.58691ZM34.9525 16.8508C34.9525 17.4582 34.4584 17.9524 33.8509 17.9524C33.2436 17.9524 32.7494 17.4582 32.7494 16.8508V8.20987C32.7494 7.60243 33.2436 7.10829 33.851 7.10829C34.4584 7.10829 34.9525 7.60243 34.9525 8.20987V16.8508Z" fill="#18945C"/>
<path d="M16.6723 33.108C14.3803 33.108 13.5523 31.848 13.3963 30.384H14.4043C14.5363 31.404 14.9443 32.268 16.6723 32.268C17.7763 32.268 18.6283 31.62 18.6283 30.648C18.6283 29.676 18.1843 29.268 16.5523 29.004C14.7523 28.728 13.6843 28.164 13.6843 26.64C13.6843 25.32 14.8243 24.312 16.4443 24.312C18.1603 24.312 19.2283 25.152 19.3963 26.676H18.4603C18.2563 25.596 17.6323 25.152 16.4443 25.152C15.2683 25.152 14.6563 25.74 14.6563 26.544C14.6563 27.384 14.9683 27.816 16.7203 28.08C18.6283 28.38 19.6363 28.956 19.6363 30.576C19.6363 32.016 18.3763 33.108 16.6723 33.108ZM23.2598 33.084C22.1198 33.084 21.5678 32.412 21.5678 31.428V27.564H20.6678V26.724H21.5678V25.296H22.5638V26.724H24.0278V27.564H22.5638V31.332C22.5638 31.944 22.8398 32.244 23.3438 32.244C23.6558 32.244 23.8958 32.196 24.1118 32.112V32.952C23.9078 33.024 23.6678 33.084 23.2598 33.084ZM27.248 33.108C26.084 33.108 25.16 32.544 25.16 31.26C25.16 29.808 26.696 29.316 28.304 29.316H29.204V28.86C29.204 27.864 28.82 27.444 27.86 27.444C26.996 27.444 26.516 27.804 26.42 28.572H25.424C25.556 27.144 26.696 26.616 27.908 26.616C29.108 26.616 30.2 27.108 30.2 28.86V33H29.204V32.208C28.736 32.796 28.172 33.108 27.248 33.108ZM27.344 32.316C28.4 32.316 29.204 31.776 29.204 30.804V30.024H28.34C27.08 30.024 26.156 30.336 26.156 31.26C26.156 31.908 26.468 32.316 27.344 32.316ZM34.0644 33.084C32.9244 33.084 32.3724 32.412 32.3724 31.428V27.564H31.4724V26.724H32.3724V25.296H33.3684V26.724H34.8324V27.564H33.3684V31.332C33.3684 31.944 33.6444 32.244 34.1484 32.244C34.4604 32.244 34.7004 32.196 34.9164 32.112V32.952C34.7124 33.024 34.4724 33.084 34.0644 33.084ZM38.3661 33.108C36.8661 33.108 35.9661 32.352 35.9061 31.068H36.8781C36.9501 31.812 37.3461 32.28 38.3541 32.28C39.3021 32.28 39.7221 31.956 39.7221 31.284C39.7221 30.624 39.2301 30.408 38.2581 30.228C36.6261 29.928 36.0741 29.472 36.0741 28.38C36.0741 27.216 37.2141 26.616 38.1981 26.616C39.3261 26.616 40.2981 27.072 40.4661 28.428H39.5061C39.3621 27.744 38.9781 27.444 38.1861 27.444C37.4661 27.444 36.9981 27.804 36.9981 28.344C36.9981 28.908 37.3101 29.136 38.4621 29.34C39.7581 29.58 40.6701 29.868 40.6701 31.2C40.6701 32.34 39.8901 33.108 38.3661 33.108Z" fill="#18945C"/>
</svg>
