<svg width="44" height="40" viewBox="0 0 44 40" fill="none" xmlns="http://www.w3.org/2000/svg">
<path d="M13.3241 32V23.42H14.3681V31.148H18.2921V32H13.3241ZM19.698 32V25.724H20.694V32H19.698ZM20.178 24.416C19.818 24.416 19.518 24.116 19.518 23.756C19.518 23.396 19.818 23.096 20.178 23.096C20.538 23.096 20.838 23.396 20.838 23.756C20.838 24.116 20.538 24.416 20.178 24.416ZM24.6766 32.108C23.1766 32.108 22.2766 31.352 22.2166 30.068H23.1886C23.2606 30.812 23.6566 31.28 24.6646 31.28C25.6126 31.28 26.0326 30.956 26.0326 30.284C26.0326 29.624 25.5406 29.408 24.5686 29.228C22.9366 28.928 22.3846 28.472 22.3846 27.38C22.3846 26.216 23.5246 25.616 24.5086 25.616C25.6366 25.616 26.6086 26.072 26.7766 27.428H25.8166C25.6726 26.744 25.2886 26.444 24.4966 26.444C23.7766 26.444 23.3086 26.804 23.3086 27.344C23.3086 27.908 23.6206 28.136 24.7726 28.34C26.0686 28.58 26.9806 28.868 26.9806 30.2C26.9806 31.34 26.2006 32.108 24.6766 32.108ZM30.4062 32.084C29.2662 32.084 28.7142 31.412 28.7142 30.428V26.564H27.8142V25.724H28.7142V24.296H29.7102V25.724H31.1742V26.564H29.7102V30.332C29.7102 30.944 29.9862 31.244 30.4902 31.244C30.8022 31.244 31.0422 31.196 31.2582 31.112V31.952C31.0542 32.024 30.8142 32.084 30.4062 32.084Z" fill="#18945C"/>
<path d="M17.6114 2.83322H32.7225C32.973 2.83322 33.2132 2.73372 33.3904 2.5566C33.5675 2.37948 33.667 2.13926 33.667 1.88878C33.667 1.6383 33.5675 1.39807 33.3904 1.22096C33.2132 1.04384 32.973 0.944336 32.7225 0.944336H17.6114C17.361 0.944336 17.1207 1.04384 16.9436 1.22096C16.7665 1.39807 16.667 1.6383 16.667 1.88878C16.667 2.13926 16.7665 2.37948 16.9436 2.5566C17.1207 2.73372 17.361 2.83322 17.6114 2.83322Z" fill="#18945C"/>
<path d="M32.7225 7.55542H17.6114C17.361 7.55542 17.1207 7.65492 16.9436 7.83204C16.7665 8.00916 16.667 8.24938 16.667 8.49986C16.667 8.75035 16.7665 8.99057 16.9436 9.16769C17.1207 9.3448 17.361 9.44431 17.6114 9.44431H32.7225C32.973 9.44431 33.2132 9.3448 33.3904 9.16769C33.5675 8.99057 33.667 8.75035 33.667 8.49986C33.667 8.24938 33.5675 8.00916 33.3904 7.83204C33.2132 7.65492 32.973 7.55542 32.7225 7.55542Z" fill="#18945C"/>
<path d="M32.7225 14.1667H17.6114C17.361 14.1667 17.1207 14.2663 16.9436 14.4434C16.7665 14.6205 16.667 14.8607 16.667 15.1112C16.667 15.3617 16.7665 15.6019 16.9436 15.779C17.1207 15.9561 17.361 16.0556 17.6114 16.0556H32.7225C32.973 16.0556 33.2132 15.9561 33.3904 15.779C33.5675 15.6019 33.667 15.3617 33.667 15.1112C33.667 14.8607 33.5675 14.6205 33.3904 14.4434C33.2132 14.2663 32.973 14.1667 32.7225 14.1667Z" fill="#18945C"/>
<path d="M12.8889 3.77778C13.9321 3.77778 14.7778 2.93209 14.7778 1.88889C14.7778 0.845684 13.9321 0 12.8889 0C11.8457 0 11 0.845684 11 1.88889C11 2.93209 11.8457 3.77778 12.8889 3.77778Z" fill="#18945C"/>
<path d="M12.8889 10.3889C13.9321 10.3889 14.7778 9.54318 14.7778 8.49997C14.7778 7.45677 13.9321 6.61108 12.8889 6.61108C11.8457 6.61108 11 7.45677 11 8.49997C11 9.54318 11.8457 10.3889 12.8889 10.3889Z" fill="#18945C"/>
<path d="M12.8889 16.9999C13.9321 16.9999 14.7778 16.1543 14.7778 15.1111C14.7778 14.0679 13.9321 13.2222 12.8889 13.2222C11.8457 13.2222 11 14.0679 11 15.1111C11 16.1543 11.8457 16.9999 12.8889 16.9999Z" fill="#18945C"/>
</svg>
