<svg width="54" height="41" viewBox="0 0 54 41" fill="none" xmlns="http://www.w3.org/2000/svg">
<path d="M2.79094 33V24.42H7.80694V25.272H3.83494V28.308H6.93094V29.16H3.83494V33H2.79094ZM10.6073 33.108C9.44334 33.108 8.51934 32.544 8.51934 31.26C8.51934 29.808 10.0553 29.316 11.6633 29.316H12.5633V28.86C12.5633 27.864 12.1793 27.444 11.2193 27.444C10.3553 27.444 9.87534 27.804 9.77934 28.572H8.78334C8.91534 27.144 10.0553 26.616 11.2673 26.616C12.4673 26.616 13.5593 27.108 13.5593 28.86V33H12.5633V32.208C12.0953 32.796 11.5313 33.108 10.6073 33.108ZM10.7033 32.316C11.7593 32.316 12.5633 31.776 12.5633 30.804V30.024H11.6993C10.4393 30.024 9.51534 30.336 9.51534 31.26C9.51534 31.908 9.82734 32.316 10.7033 32.316ZM16.912 33L14.632 26.724H15.712L17.572 31.992L19.408 26.724H20.44L18.184 33H16.912ZM24.1904 32.28C25.4504 32.28 26.2424 31.332 26.2424 29.916V29.832C26.2424 28.38 25.4384 27.444 24.1904 27.444C22.9304 27.444 22.1384 28.38 22.1384 29.82V29.916C22.1384 31.344 22.9184 32.28 24.1904 32.28ZM24.1784 33.108C22.3904 33.108 21.1064 31.752 21.1064 29.916V29.82C21.1064 27.936 22.4144 26.616 24.1904 26.616C25.9664 26.616 27.2744 27.924 27.2744 29.808V29.904C27.2744 31.8 25.9664 33.108 24.1784 33.108ZM28.8166 33V26.724H29.8126V27.852C30.2086 27.144 30.7486 26.652 31.8766 26.616V27.552C30.6166 27.612 29.8126 28.008 29.8126 29.556V33H28.8166ZM33.3523 33V26.724H34.3483V33H33.3523ZM33.8323 25.416C33.4723 25.416 33.1723 25.116 33.1723 24.756C33.1723 24.396 33.4723 24.096 33.8323 24.096C34.1923 24.096 34.4923 24.396 34.4923 24.756C34.4923 25.116 34.1923 25.416 33.8323 25.416ZM38.2949 33.084C37.1549 33.084 36.6029 32.412 36.6029 31.428V27.564H35.7029V26.724H36.6029V25.296H37.5989V26.724H39.0629V27.564H37.5989V31.332C37.5989 31.944 37.8749 32.244 38.3789 32.244C38.6909 32.244 38.9309 32.196 39.1469 32.112V32.952C38.9429 33.024 38.7029 33.084 38.2949 33.084ZM43.2205 33.108C41.4445 33.108 40.1845 31.86 40.1845 29.928V29.832C40.1845 27.936 41.3965 26.616 43.1245 26.616C44.5765 26.616 45.9445 27.492 45.9445 29.736V30.06H41.2165C41.2645 31.488 41.9485 32.28 43.2325 32.28C44.2045 32.28 44.7685 31.92 44.9005 31.188H45.8965C45.6805 32.448 44.6365 33.108 43.2205 33.108ZM41.2525 29.256H44.9245C44.8285 27.96 44.1565 27.444 43.1245 27.444C42.1045 27.444 41.4205 28.14 41.2525 29.256ZM49.4754 33.108C47.9754 33.108 47.0754 32.352 47.0154 31.068H47.9874C48.0594 31.812 48.4554 32.28 49.4634 32.28C50.4114 32.28 50.8314 31.956 50.8314 31.284C50.8314 30.624 50.3394 30.408 49.3674 30.228C47.7354 29.928 47.1834 29.472 47.1834 28.38C47.1834 27.216 48.3234 26.616 49.3074 26.616C50.4354 26.616 51.4074 27.072 51.5754 28.428H50.6154C50.4714 27.744 50.0874 27.444 49.2954 27.444C48.5754 27.444 48.1074 27.804 48.1074 28.344C48.1074 28.908 48.4194 29.136 49.5714 29.34C50.8674 29.58 51.7794 29.868 51.7794 31.2C51.7794 32.34 50.9994 33.108 49.4754 33.108Z" fill="#36342F"/>
<path d="M36.8598 7.03689C36.6893 6.50438 36.3487 6.03984 35.8883 5.71198C35.4279 5.38412 34.8723 5.21033 34.3035 5.21633H30.662L29.5559 1.83365C29.382 1.30119 29.0402 0.836694 28.5799 0.507138C28.1196 0.177582 27.5645 0 26.9946 0C26.4248 0 25.8697 0.177582 25.4094 0.507138C24.9491 0.836694 24.6073 1.30119 24.4334 1.83365L23.3273 5.21633H19.6858C19.1188 5.21712 18.5666 5.39371 18.108 5.72087C17.6494 6.04803 17.3079 6.50903 17.1323 7.03802C16.9567 7.56701 16.9559 8.13694 17.1301 8.66639C17.3043 9.19584 17.6445 9.65773 18.1022 9.9861L21.0661 12.1125L19.9392 15.5369C19.7571 16.068 19.7548 16.6427 19.9326 17.1752C20.1105 17.7077 20.4589 18.1695 20.926 18.4919C21.3852 18.8245 21.9416 19.0028 22.5123 19C23.083 18.9972 23.6376 18.8135 24.0933 18.4763L26.9946 16.381L29.8968 18.4739C30.3551 18.8046 30.9085 18.9843 31.4774 18.987C32.0464 18.9898 32.6015 18.8154 33.0631 18.489C33.5246 18.1626 33.8688 17.701 34.0462 17.1706C34.2235 16.6401 34.2249 16.0682 34.0501 15.5369L32.9232 12.1125L35.8904 9.9861C36.3534 9.66185 36.6976 9.19996 36.8722 8.6688C37.0468 8.13764 37.0424 7.56544 36.8598 7.03689ZM34.9069 8.66525L31.453 11.1426C31.3111 11.2441 31.2055 11.387 31.1513 11.5509C31.0972 11.7148 31.0971 11.8914 31.1512 12.0553L32.464 16.0383C32.5304 16.2403 32.5298 16.4578 32.4624 16.6594C32.3949 16.8611 32.264 17.0366 32.0884 17.1607C31.9129 17.2847 31.7018 17.351 31.4855 17.3499C31.2691 17.3488 31.0587 17.2805 30.8845 17.1546L27.4881 14.7011C27.345 14.598 27.1721 14.5423 26.9946 14.5423C26.8171 14.5423 26.6443 14.598 26.5012 14.7011L23.1048 17.1546C22.9306 17.2822 22.7197 17.3519 22.5024 17.3539C22.2851 17.3558 22.0729 17.2898 21.8964 17.1654C21.72 17.041 21.5885 16.8647 21.521 16.662C21.4535 16.4594 21.4536 16.2409 21.5212 16.0383L22.8381 12.0553C22.8922 11.8914 22.8921 11.7148 22.8379 11.5509C22.7838 11.387 22.6782 11.2441 22.5363 11.1426L19.0824 8.66525C18.9084 8.54028 18.7792 8.36456 18.7131 8.1632C18.647 7.96184 18.6475 7.74514 18.7144 7.54404C18.7813 7.34295 18.9113 7.16775 19.0857 7.04347C19.2602 6.9192 19.4702 6.8522 19.6858 6.85205H23.9366C24.1131 6.85205 24.285 6.79708 24.4276 6.69508C24.5702 6.59308 24.6761 6.4493 24.7301 6.28446L26.022 2.33337C26.0883 2.13118 26.2183 1.95485 26.3932 1.82977C26.5681 1.70468 26.779 1.63729 26.9955 1.63729C27.2119 1.63729 27.4228 1.70468 27.5978 1.82977C27.7727 1.95485 27.9027 2.13118 27.969 2.33337L29.2609 6.28446C29.3149 6.4493 29.4208 6.59308 29.5634 6.69508C29.706 6.79708 29.8779 6.85205 30.0544 6.85205H34.3051C34.5207 6.8522 34.7308 6.9192 34.9052 7.04347C35.0797 7.16775 35.2097 7.34295 35.2766 7.54404C35.3435 7.74514 35.344 7.96184 35.2779 8.1632C35.2118 8.36456 35.0825 8.54028 34.9086 8.66525H34.9069Z" fill="#36342F"/>
</svg>
