<svg width="44" height="41" viewBox="0 0 44 41" fill="none" xmlns="http://www.w3.org/2000/svg">
<path d="M10.9394 33V24.42H12.3914L15.0434 31.104L17.6114 24.42H19.0514V33H18.0074V25.776L15.1634 33H14.8394L11.8994 25.776V33H10.9394ZM22.7167 33.108C21.5527 33.108 20.6287 32.544 20.6287 31.26C20.6287 29.808 22.1647 29.316 23.7727 29.316H24.6727V28.86C24.6727 27.864 24.2887 27.444 23.3287 27.444C22.4647 27.444 21.9847 27.804 21.8887 28.572H20.8927C21.0247 27.144 22.1647 26.616 23.3767 26.616C24.5767 26.616 25.6687 27.108 25.6687 28.86V33H24.6727V32.208C24.2047 32.796 23.6407 33.108 22.7167 33.108ZM22.8127 32.316C23.8687 32.316 24.6727 31.776 24.6727 30.804V30.024H23.8087C22.5487 30.024 21.6247 30.336 21.6247 31.26C21.6247 31.908 21.9367 32.316 22.8127 32.316ZM27.6252 35.184V26.724H28.6212V27.78C28.9812 27.168 29.8332 26.616 30.7452 26.616C32.3892 26.616 33.6012 27.816 33.6012 29.772V29.868C33.6012 31.788 32.4732 33.108 30.7452 33.108C29.7132 33.108 28.9812 32.592 28.6212 31.968V35.184H27.6252ZM30.6492 32.28C31.8972 32.28 32.5692 31.44 32.5692 29.916V29.82C32.5692 28.236 31.6932 27.444 30.6372 27.444C29.4732 27.444 28.5852 28.212 28.5852 29.82V29.916C28.5852 31.524 29.4252 32.28 30.6492 32.28Z" fill="#36342F"/>
<path d="M22.4943 5.07031C21.826 5.07031 21.1727 5.26849 20.617 5.63979C20.0613 6.01108 19.6282 6.53882 19.3725 7.15627C19.1167 7.77371 19.0498 8.45313 19.1802 9.1086C19.3105 9.76408 19.6324 10.3662 20.1049 10.8387C20.5775 11.3113 21.1796 11.6331 21.8351 11.7635C22.4906 11.8939 23.17 11.827 23.7874 11.5712C24.4049 11.3155 24.9326 10.8824 25.3039 10.3267C25.6752 9.771 25.8734 9.11769 25.8734 8.44938C25.8734 7.55319 25.5174 6.69372 24.8837 6.06002C24.25 5.42632 23.3905 5.07031 22.4943 5.07031ZM22.4943 10.1389C22.1601 10.1389 21.8335 10.0398 21.5556 9.85417C21.2778 9.66853 21.0613 9.40466 20.9334 9.09593C20.8055 8.78721 20.772 8.4475 20.8372 8.11977C20.9024 7.79203 21.0633 7.49098 21.2996 7.2547C21.5359 7.01841 21.837 6.8575 22.1647 6.79231C22.4924 6.72712 22.8321 6.76058 23.1409 6.88845C23.4496 7.01633 23.7134 7.23288 23.8991 7.51072C24.0847 7.78857 24.1838 8.11522 24.1838 8.44938C24.1838 8.89747 24.0058 9.32721 23.689 9.64406C23.3721 9.96091 22.9424 10.1389 22.4943 10.1389Z" fill="#36342F"/>
<path d="M22.4941 20.2761C21.7828 20.2797 21.0809 20.1129 20.4473 19.7895C19.8137 19.4662 19.2668 18.9957 18.8523 18.4176C15.6329 13.9767 14 10.6381 14 8.49413C14 6.24134 14.8949 4.08083 16.4879 2.48787C18.0808 0.894914 20.2413 0 22.4941 0C24.7469 0 26.9074 0.894914 28.5004 2.48787C30.0933 4.08083 30.9883 6.24134 30.9883 8.49413C30.9883 10.6381 29.3553 13.9767 26.1359 18.4176C25.7215 18.9957 25.1746 19.4662 24.5409 19.7895C23.9073 20.1129 23.2055 20.2797 22.4941 20.2761ZM22.4941 1.84413C20.7306 1.84614 19.0399 2.54758 17.7929 3.79458C16.5459 5.04158 15.8444 6.7323 15.8424 8.49582C15.8424 10.1938 17.4416 13.3338 20.3442 17.3371C20.5906 17.6765 20.9139 17.9528 21.2876 18.1433C21.6612 18.3338 22.0747 18.4331 22.4941 18.4331C22.9136 18.4331 23.327 18.3338 23.7007 18.1433C24.0744 17.9528 24.3976 17.6765 24.6441 17.3371C27.5467 13.3338 29.1458 10.1938 29.1458 8.49582C29.1438 6.7323 28.4424 5.04158 27.1954 3.79458C25.9484 2.54758 24.2576 1.84614 22.4941 1.84413Z" fill="#36342F"/>
</svg>
