<svg width="31" height="31" viewBox="0 0 31 31" fill="none" xmlns="http://www.w3.org/2000/svg">
<circle cx="15.5" cy="15.5" r="15.5" fill="#5C7B6D"/>
<g clip-path="url(#clip0_130_1672)">
<path d="M15.5 15.5C16.5384 15.5 17.5534 15.1921 18.4167 14.6152C19.2801 14.0383 19.953 13.2184 20.3504 12.2591C20.7477 11.2998 20.8517 10.2442 20.6491 9.22578C20.4466 8.20738 19.9465 7.27192 19.2123 6.53769C18.4781 5.80347 17.5426 5.30345 16.5242 5.10088C15.5058 4.89831 14.4502 5.00227 13.4909 5.39963C12.5316 5.79699 11.7117 6.4699 11.1348 7.33326C10.5579 8.19662 10.25 9.21165 10.25 10.25C10.2514 11.642 10.805 12.9765 11.7892 13.9608C12.7735 14.945 14.108 15.4986 15.5 15.5ZM15.5 6.75C16.1922 6.75 16.8689 6.95527 17.4445 7.33986C18.0201 7.72444 18.4687 8.27107 18.7336 8.91061C18.9985 9.55015 19.0678 10.2539 18.9327 10.9328C18.7977 11.6118 18.4644 12.2354 17.9749 12.7249C17.4854 13.2144 16.8617 13.5477 16.1828 13.6828C15.5039 13.8178 14.8001 13.7485 14.1606 13.4836C13.5211 13.2187 12.9744 12.7701 12.5899 12.1945C12.2053 11.6189 12 10.9422 12 10.25C12 9.32174 12.3687 8.43151 13.0251 7.77513C13.6815 7.11875 14.5717 6.75 15.5 6.75Z" fill="#FFFEFA"/>
<path d="M15.5 17.25C13.4121 17.2523 11.4104 18.0827 9.93409 19.5591C8.45774 21.0354 7.62732 23.0371 7.625 25.125C7.625 25.3571 7.71719 25.5796 7.88128 25.7437C8.04538 25.9078 8.26794 26 8.5 26C8.73206 26 8.95462 25.9078 9.11872 25.7437C9.28281 25.5796 9.375 25.3571 9.375 25.125C9.375 23.5005 10.0203 21.9426 11.169 20.794C12.3176 19.6453 13.8755 19 15.5 19C17.1245 19 18.6824 19.6453 19.831 20.794C20.9797 21.9426 21.625 23.5005 21.625 25.125C21.625 25.3571 21.7172 25.5796 21.8813 25.7437C22.0454 25.9078 22.2679 26 22.5 26C22.7321 26 22.9546 25.9078 23.1187 25.7437C23.2828 25.5796 23.375 25.3571 23.375 25.125C23.3727 23.0371 22.5423 21.0354 21.0659 19.5591C19.5896 18.0827 17.5879 17.2523 15.5 17.25Z" fill="#FFFEFA"/>
</g>
<defs>
<clipPath id="clip0_130_1672">
<rect width="21" height="21" fill="white" transform="translate(5 5)"/>
</clipPath>
</defs>
</svg>
