<svg width="373" height="52" viewBox="0 0 373 52" fill="none" xmlns="http://www.w3.org/2000/svg">
<rect x="1" y="1" width="371" height="50" rx="23" fill="#FFFEFA" stroke="#36342F" stroke-width="2"/>
<path d="M38.7608 35.4646L33.2892 29.993C34.7802 28.1694 35.5134 25.8424 35.3369 23.4934C35.1604 21.1445 34.0878 18.9532 32.341 17.3728C30.5941 15.7925 28.3067 14.944 25.9518 15.0029C23.597 15.0618 21.3548 16.0235 19.6892 17.6892C18.0235 19.3548 17.0618 21.597 17.0029 23.9518C16.944 26.3067 17.7925 28.5941 19.3728 30.341C20.9532 32.0878 23.1445 33.1604 25.4934 33.3369C27.8424 33.5134 30.1694 32.7802 31.993 31.2892L37.4646 36.7608C37.6375 36.9277 37.869 37.0201 38.1094 37.018C38.3497 37.016 38.5796 36.9195 38.7496 36.7496C38.9195 36.5796 39.016 36.3497 39.018 36.1094C39.0201 35.869 38.9277 35.6375 38.7608 35.4646ZM26.196 31.5293C24.7456 31.5293 23.3278 31.0992 22.1218 30.2935C20.9159 29.4877 19.9759 28.3423 19.4209 27.0024C18.8658 25.6624 18.7206 24.1879 19.0036 22.7653C19.2865 21.3428 19.985 20.0361 21.0106 19.0106C22.0361 17.985 23.3428 17.2865 24.7653 17.0036C26.1879 16.7206 27.6624 16.8658 29.0024 17.4209C30.3423 17.9759 31.4877 18.9159 32.2935 20.1218C33.0992 21.3278 33.5293 22.7456 33.5293 24.196C33.5272 26.1403 32.7538 28.0043 31.379 29.379C30.0043 30.7538 28.1403 31.5272 26.196 31.5293Z" fill="#36342F"/>
</svg>
