<svg width="166" height="29" viewBox="0 0 166 29" fill="none" xmlns="http://www.w3.org/2000/svg">
<path d="M4.93213 11.6899C5.15183 10.8162 5.73783 10.1179 6.49354 9.73096" stroke="#36342F" stroke-miterlimit="10" stroke-linecap="round" stroke-linejoin="round"/>
<path d="M7.64075 10.7822C7.83788 11.2858 7.90286 11.8484 7.80062 12.4198C7.67536 13.1199 7.31921 13.7206 6.82471 14.1575" stroke="#36342F" stroke-miterlimit="10" stroke-linecap="round" stroke-linejoin="round"/>
<path d="M3.15451 14.109C2.35455 13.4317 1.9931 12.4291 2.09913 11.46C2.11022 11.3589 2.18224 11.2738 2.28023 11.2462C3.21849 10.9818 4.26697 11.173 5.06693 11.8503C5.74413 12.4236 6.10707 13.2301 6.13819 14.052" stroke="#36342F" stroke-miterlimit="10" stroke-linecap="round" stroke-linejoin="round"/>
<path d="M4.90261 11.6042C4.90261 11.6042 4.76681 10.4325 4.32275 8.90381" stroke="#36342F" stroke-miterlimit="10" stroke-linecap="round" stroke-linejoin="round"/>
<path d="M1.7729 7.21991C2.22985 8.16321 3.11097 8.76279 4.07589 8.90119C4.17663 8.91562 4.27697 8.86708 4.32806 8.77903C4.81762 7.93606 4.89333 6.873 4.43639 5.92965C3.97945 4.98635 3.09833 4.38676 2.13335 4.24837C2.03262 4.23393 1.93228 4.28248 1.88118 4.37053C1.39163 5.21354 1.31591 6.27661 1.7729 7.21991Z" stroke="#36342F" stroke-miterlimit="10" stroke-linecap="round" stroke-linejoin="round"/>
<path d="M12.4253 14.052C12.4834 13.0455 12.6056 11.9749 12.8138 10.8513" stroke="#36342F" stroke-miterlimit="10" stroke-linecap="round" stroke-linejoin="round"/>
<path d="M11.7822 10.0776C12.0747 10.4114 12.4371 10.6774 12.8421 10.8565" stroke="#36342F" stroke-miterlimit="10" stroke-linecap="round" stroke-linejoin="round"/>
<path d="M13.9223 7.78907C13.6683 6.90196 13.0327 6.20633 12.2308 5.85163C12.1377 5.81042 12.0281 5.8301 11.955 5.90097C11.4116 6.42849 11.0728 7.15143 11.0352 7.93151" stroke="#36342F" stroke-miterlimit="10" stroke-linecap="round" stroke-linejoin="round"/>
<path d="M15.1021 10.7128C16.0951 10.2247 16.8533 8.31134 16.7814 7.65512C16.7703 7.55393 16.6983 7.46888 16.6004 7.44126C15.6621 7.17685 14.6136 7.36804 13.8137 8.04533C13.0137 8.72263 12.6523 9.72521 12.7583 10.6942C12.7694 10.7954 12.8414 10.8805 12.9394 10.9081C13.649 11.1081 14.4216 11.0472 15.1021 10.7128Z" stroke="#36342F" stroke-miterlimit="10" stroke-linecap="round" stroke-linejoin="round"/>
<path d="M9.00833 8.05302C8.88836 7.34801 8.79287 6.60678 8.72949 5.83154" stroke="#36342F" stroke-miterlimit="10" stroke-linecap="round" stroke-linejoin="round"/>
<path d="M10.8777 14.1575C10.6489 13.6596 10.4157 13.1047 10.1909 12.4954" stroke="#36342F" stroke-miterlimit="10" stroke-linecap="round" stroke-linejoin="round"/>
<path d="M9.14057 8.18244C8.41488 7.42628 7.39152 7.12761 6.43109 7.29393C6.3307 7.31091 6.25029 7.38832 6.22881 7.48771C6.02304 8.44065 6.27926 9.4755 7.00495 10.2317C7.55334 10.803 8.27204 11.1137 9.00472 11.1586" stroke="#36342F" stroke-miterlimit="10" stroke-linecap="round" stroke-linejoin="round"/>
<path d="M8.74951 9.93871C8.74951 10.9869 9.28112 11.9106 10.0892 12.4558C10.1735 12.5127 10.285 12.5127 10.3694 12.4558C11.1775 11.9106 11.709 10.9868 11.709 9.93871C11.709 8.89052 11.1774 7.9668 10.3694 7.42161C10.285 7.36467 10.1735 7.36467 10.0892 7.42161C9.28112 7.96685 8.74951 8.89057 8.74951 9.93871Z" stroke="#36342F" stroke-miterlimit="10" stroke-linecap="round" stroke-linejoin="round"/>
<path d="M9.00843 2.44861C8.53591 1.6525 7.74124 1.14072 6.87286 1.00307C6.77232 0.987136 6.67133 1.03423 6.61889 1.12149C6.11695 1.95716 6.02555 3.01897 6.46851 3.96892C6.91146 4.91886 7.78364 5.53138 8.74642 5.68401" stroke="#36342F" stroke-miterlimit="10" stroke-linecap="round" stroke-linejoin="round"/>
<path d="M8.96499 2.71761C8.3654 3.57736 8.27306 4.63912 8.62402 5.54856C8.66068 5.64351 8.75207 5.70728 8.85386 5.70883C9.82858 5.72387 10.793 5.27027 11.3926 4.41053C11.9922 3.55079 12.0845 2.48902 11.7336 1.57958C11.6969 1.48463 11.6055 1.42086 11.5037 1.41931C10.529 1.40427 9.56457 1.85787 8.96499 2.71761Z" stroke="#36342F" stroke-miterlimit="10" stroke-linecap="round" stroke-linejoin="round"/>
<path d="M14.1781 23.7776V25.3169C14.1781 25.5961 13.9517 25.8224 13.6725 25.8224H3.96208C3.68289 25.8224 3.45654 25.5961 3.45654 25.3169V23.7776" stroke="#36342F" stroke-miterlimit="10" stroke-linecap="round" stroke-linejoin="round"/>
<path d="M16.6343 15.314H19.3062" stroke="#36342F" stroke-miterlimit="10" stroke-linecap="round" stroke-linejoin="round"/>
<path d="M19.3062 17.5288H16.6343" stroke="#36342F" stroke-miterlimit="10" stroke-linecap="round" stroke-linejoin="round"/>
<path d="M19.3062 21.4892V23.4219C19.3062 23.701 19.5325 23.9274 19.8117 23.9274H21.4945C21.7737 23.9274 22.0001 23.701 22.0001 23.4219V14.663C22.0001 14.3838 21.7737 14.1575 21.4945 14.1575H19.8117C19.5325 14.1575 19.3062 14.3838 19.3062 14.663V22.1765" stroke="#36342F" stroke-miterlimit="10" stroke-linecap="round" stroke-linejoin="round"/>
<path d="M1 18.3397V20.7161C1 22.3708 2.34136 23.7122 3.99603 23.7122H13.6382C15.2928 23.7122 16.6342 22.3708 16.6342 20.7161V14.663C16.6342 14.3838 16.4079 14.1575 16.1287 14.1575H1.50554C1.22635 14.1575 1 14.3838 1 14.663V18.6554" stroke="#36342F" stroke-miterlimit="10" stroke-linecap="round" stroke-linejoin="round"/>
<path d="M41.32 22.2C39.5333 22.2 37.9533 21.44 36.58 19.92C35.22 18.3867 34.54 16.66 34.54 14.74C34.54 12.66 35.16 10.9533 36.4 9.62C37.64 8.28667 39.2333 7.62 41.18 7.62C42.6867 7.62 43.9933 8.02667 45.1 8.84C46.2067 9.64 46.76 10.48 46.76 11.36C46.76 11.6933 46.66 11.96 46.46 12.16C46.26 12.36 45.98 12.46 45.62 12.46C45.2867 12.46 44.9867 12.3333 44.72 12.08C44.4533 11.8133 44.2067 11.4933 43.98 11.12C43.7667 10.7467 43.5267 10.3733 43.26 10C43.0067 9.61333 42.6533 9.29333 42.2 9.04C41.76 8.77333 41.24 8.64 40.64 8.64C39.6133 8.64 38.7333 9.08 38 9.96C37.28 10.8267 36.92 11.9533 36.92 13.34C36.92 15.2733 37.4267 16.88 38.44 18.16C39.4533 19.4267 40.62 20.06 41.94 20.06C42.9267 20.06 43.7733 19.7667 44.48 19.18C45.1867 18.5933 45.7267 17.9133 46.1 17.14C46.1933 17.0067 46.3133 16.9267 46.46 16.9C46.6067 16.86 46.7333 16.8933 46.84 17C46.9467 17.0933 46.9867 17.2333 46.96 17.42C46.7733 18.7667 46.1867 19.9 45.2 20.82C44.2267 21.74 42.9333 22.2 41.32 22.2ZM55.257 22.2C53.1904 22.2 51.4904 21.4867 50.157 20.06C48.8237 18.62 48.157 16.9 48.157 14.9C48.157 12.78 48.8104 11.0333 50.117 9.66C51.4237 8.28667 53.1037 7.6 55.157 7.6C57.197 7.6 58.8637 8.32667 60.157 9.78C61.4637 11.22 62.117 12.9533 62.117 14.98C62.117 17.02 61.457 18.7333 60.137 20.12C58.817 21.5067 57.1904 22.2 55.257 22.2ZM55.897 21.12C57.017 21.12 57.937 20.6933 58.657 19.84C59.377 18.9867 59.737 17.9533 59.737 16.74C59.737 14.4733 59.2304 12.5667 58.217 11.02C57.2037 9.46 55.9037 8.68 54.317 8.68C53.1837 8.68 52.2704 9.09333 51.577 9.92C50.8837 10.7333 50.537 11.7933 50.537 13.1C50.537 15.3533 51.037 17.2533 52.037 18.8C53.037 20.3467 54.3237 21.12 55.897 21.12ZM64.25 22C63.9567 22 63.81 21.9067 63.81 21.72V21.66C63.81 21.54 63.9367 21.3667 64.19 21.14C64.4433 20.9 64.57 20.6333 64.57 20.34V9.46C64.57 9.16667 64.4433 8.90667 64.19 8.68C63.9367 8.44 63.81 8.26 63.81 8.14V8.08C63.81 7.89333 63.9433 7.8 64.21 7.8H72.95C73.2567 7.8 73.4433 7.97333 73.51 8.32L73.99 10.48C74.0567 10.7867 73.9433 10.94 73.65 10.94H73.57C73.3567 10.94 73.1167 10.7667 72.85 10.42C72.5833 10.06 72.2967 9.70667 71.99 9.36C71.6833 9 71.3633 8.82 71.03 8.82H67.69C67.2367 8.82 67.01 9.06667 67.01 9.56V14.84H70.15C70.43 14.84 70.7033 14.62 70.97 14.18C71.2367 13.74 71.4367 13.52 71.57 13.52H71.71C71.91 13.52 72.01 13.6467 72.01 13.9V16.74C72.01 16.9933 71.91 17.12 71.71 17.12H71.57C71.4367 17.12 71.2367 16.9133 70.97 16.5C70.7033 16.0733 70.43 15.86 70.15 15.86H67.01V20.34C67.01 20.6333 67.1433 20.9 67.41 21.14C67.69 21.3667 67.83 21.54 67.83 21.66V21.72C67.83 21.9067 67.6833 22 67.39 22H64.25ZM75.793 22C75.4996 22 75.353 21.9067 75.353 21.72V21.66C75.353 21.54 75.4796 21.3667 75.733 21.14C75.9863 20.9 76.113 20.6333 76.113 20.34V9.46C76.113 9.16667 75.9863 8.90667 75.733 8.68C75.4796 8.44 75.353 8.26 75.353 8.14V8.08C75.353 7.89333 75.4863 7.8 75.753 7.8H84.493C84.7996 7.8 84.9863 7.97333 85.053 8.32L85.533 10.48C85.5996 10.7867 85.4863 10.94 85.193 10.94H85.113C84.8996 10.94 84.6596 10.7667 84.393 10.42C84.1263 10.06 83.8396 9.70667 83.533 9.36C83.2263 9 82.9063 8.82 82.573 8.82H79.233C78.7796 8.82 78.553 9.06667 78.553 9.56V14.84H81.693C81.973 14.84 82.2463 14.62 82.513 14.18C82.7796 13.74 82.9796 13.52 83.113 13.52H83.253C83.453 13.52 83.553 13.6467 83.553 13.9V16.74C83.553 16.9933 83.453 17.12 83.253 17.12H83.113C82.9796 17.12 82.7796 16.9133 82.513 16.5C82.2463 16.0733 81.973 15.86 81.693 15.86H78.553V20.34C78.553 20.6333 78.6863 20.9 78.953 21.14C79.233 21.3667 79.373 21.54 79.373 21.66V21.72C79.373 21.9067 79.2263 22 78.933 22H75.793ZM87.3359 22C87.0426 22 86.8959 21.9067 86.8959 21.72V21.66C86.8959 21.54 87.0226 21.3667 87.2759 21.14C87.5293 20.9 87.6559 20.6267 87.6559 20.32V9.48C87.6559 9.17333 87.5293 8.9 87.2759 8.66C87.0226 8.42 86.8959 8.24667 86.8959 8.14V8.08C86.8959 7.89333 87.0293 7.8 87.2959 7.8H95.9959C96.3159 7.8 96.5026 7.96667 96.5559 8.3L97.0359 10.46C97.1026 10.7667 96.9959 10.92 96.7159 10.92H96.6159C96.4426 10.92 96.2493 10.8133 96.0359 10.6C95.8359 10.3733 95.6493 10.1267 95.4759 9.86C95.3159 9.59333 95.1093 9.35333 94.8559 9.14C94.6159 8.91333 94.3626 8.8 94.0959 8.8H90.7359C90.2826 8.8 90.0559 9.06 90.0559 9.58V14.24H93.1359C93.3359 14.24 93.5093 14.1733 93.6559 14.04C93.8026 13.8933 93.9093 13.74 93.9759 13.58C94.0559 13.42 94.1426 13.2733 94.2359 13.14C94.3426 12.9933 94.4426 12.92 94.5359 12.92H94.6559C94.8559 12.92 94.9559 13.0467 94.9559 13.3V16.14C94.9559 16.3933 94.8559 16.52 94.6559 16.52H94.5359C94.4426 16.52 94.3426 16.4533 94.2359 16.32C94.1426 16.1867 94.0559 16.0467 93.9759 15.9C93.9093 15.74 93.8026 15.5933 93.6559 15.46C93.5093 15.3267 93.3359 15.26 93.1359 15.26H90.0559L90.0359 19.94C90.0359 20.2333 90.1093 20.4867 90.2559 20.7C90.4159 20.9 90.6426 21 90.9359 21H94.7159C94.9826 21 95.2359 20.8867 95.4759 20.66C95.7159 20.4333 95.9093 20.18 96.0559 19.9C96.2026 19.62 96.3759 19.3667 96.5759 19.14C96.7759 18.9133 96.9693 18.8 97.1559 18.8H97.2959C97.4026 18.8 97.4826 18.8467 97.5359 18.94C97.6026 19.0333 97.6226 19.14 97.5959 19.26L97.1359 21.48C97.0559 21.8267 96.8626 22 96.5559 22H87.3359ZM99.4844 22C99.191 22 99.0444 21.9067 99.0444 21.72V21.66C99.0444 21.54 99.171 21.3667 99.4244 21.14C99.6777 20.9 99.8044 20.6267 99.8044 20.32V9.48C99.8044 9.17333 99.6777 8.9 99.4244 8.66C99.171 8.42 99.0444 8.24667 99.0444 8.14V8.08C99.0444 7.89333 99.1777 7.8 99.4444 7.8H108.144C108.464 7.8 108.651 7.96667 108.704 8.3L109.184 10.46C109.251 10.7667 109.144 10.92 108.864 10.92H108.764C108.591 10.92 108.398 10.8133 108.184 10.6C107.984 10.3733 107.798 10.1267 107.624 9.86C107.464 9.59333 107.258 9.35333 107.004 9.14C106.764 8.91333 106.511 8.8 106.244 8.8H102.884C102.431 8.8 102.204 9.06 102.204 9.58V14.24H105.284C105.484 14.24 105.658 14.1733 105.804 14.04C105.951 13.8933 106.058 13.74 106.124 13.58C106.204 13.42 106.291 13.2733 106.384 13.14C106.491 12.9933 106.591 12.92 106.684 12.92H106.804C107.004 12.92 107.104 13.0467 107.104 13.3V16.14C107.104 16.3933 107.004 16.52 106.804 16.52H106.684C106.591 16.52 106.491 16.4533 106.384 16.32C106.291 16.1867 106.204 16.0467 106.124 15.9C106.058 15.74 105.951 15.5933 105.804 15.46C105.658 15.3267 105.484 15.26 105.284 15.26H102.204L102.184 19.94C102.184 20.2333 102.258 20.4867 102.404 20.7C102.564 20.9 102.791 21 103.084 21H106.864C107.131 21 107.384 20.8867 107.624 20.66C107.864 20.4333 108.058 20.18 108.204 19.9C108.351 19.62 108.524 19.3667 108.724 19.14C108.924 18.9133 109.118 18.8 109.304 18.8H109.444C109.551 18.8 109.631 18.8467 109.684 18.94C109.751 19.0333 109.771 19.14 109.744 19.26L109.284 21.48C109.204 21.8267 109.011 22 108.704 22H99.4844ZM115.93 22C115.636 22 115.49 21.9 115.49 21.7V21.64C115.49 21.5333 115.616 21.3667 115.87 21.14C116.123 20.9 116.25 20.6333 116.25 20.34V9.46C116.25 9.18 116.123 8.92 115.87 8.68C115.616 8.44 115.49 8.26667 115.49 8.16V8.08C115.49 7.89333 115.636 7.8 115.93 7.8H120.07C121.936 7.8 123.456 8.18 124.63 8.94C125.803 9.68667 126.39 10.8467 126.39 12.42C126.39 13.94 125.87 15.1333 124.83 16C123.803 16.8533 122.39 17.28 120.59 17.28H118.67V20.34C118.67 20.6333 118.803 20.9 119.07 21.14C119.35 21.3667 119.49 21.5333 119.49 21.64V21.7C119.49 21.9 119.35 22 119.07 22H115.93ZM119.45 16.28H120.59C121.616 16.28 122.423 15.98 123.01 15.38C123.61 14.78 123.91 13.9867 123.91 13C123.91 11.6667 123.53 10.6333 122.77 9.9C122.023 9.16667 121.123 8.8 120.07 8.8H119.25C118.863 8.8 118.67 9.05333 118.67 9.56V15.48C118.67 16.0133 118.93 16.28 119.45 16.28ZM128.254 22C127.974 22 127.834 21.9067 127.834 21.72V21.66C127.834 21.54 127.954 21.3667 128.194 21.14C128.447 20.9 128.574 20.6333 128.574 20.34V9.46C128.574 9.16667 128.447 8.90667 128.194 8.68C127.954 8.44 127.834 8.26 127.834 8.14V8.08C127.834 7.89333 127.974 7.8 128.254 7.8H131.394C131.687 7.8 131.834 7.89333 131.834 8.08V8.14C131.834 8.26 131.694 8.44 131.414 8.68C131.147 8.90667 131.014 9.16667 131.014 9.46V20.04C131.014 20.32 131.074 20.5467 131.194 20.72C131.327 20.8933 131.514 20.98 131.754 20.98H135.414C135.721 20.98 135.994 20.86 136.234 20.62C136.487 20.3667 136.681 20.0867 136.814 19.78C136.947 19.4733 137.101 19.2 137.274 18.96C137.447 18.7067 137.621 18.58 137.794 18.58H137.994C138.247 18.58 138.341 18.7133 138.274 18.98L137.774 21.48C137.694 21.8267 137.501 22 137.194 22H128.254ZM145.765 22.2C143.698 22.2 141.998 21.4867 140.665 20.06C139.332 18.62 138.665 16.9 138.665 14.9C138.665 12.78 139.318 11.0333 140.625 9.66C141.932 8.28667 143.612 7.6 145.665 7.6C147.705 7.6 149.372 8.32667 150.665 9.78C151.972 11.22 152.625 12.9533 152.625 14.98C152.625 17.02 151.965 18.7333 150.645 20.12C149.325 21.5067 147.698 22.2 145.765 22.2ZM146.405 21.12C147.525 21.12 148.445 20.6933 149.165 19.84C149.885 18.9867 150.245 17.9533 150.245 16.74C150.245 14.4733 149.738 12.5667 148.725 11.02C147.712 9.46 146.412 8.68 144.825 8.68C143.692 8.68 142.778 9.09333 142.085 9.92C141.392 10.7333 141.045 11.7933 141.045 13.1C141.045 15.3533 141.545 17.2533 142.545 18.8C143.545 20.3467 144.832 21.12 146.405 21.12ZM157.525 22C157.245 22 157.105 21.9067 157.105 21.72V21.66C157.105 21.54 157.232 21.3667 157.485 21.14C157.752 20.9 157.885 20.6333 157.885 20.34V8.88H155.705C155.385 8.88 155.105 9.06667 154.865 9.44C154.639 9.81333 154.439 10.1867 154.265 10.56C154.092 10.9333 153.912 11.12 153.725 11.12H153.485C153.219 11.12 153.105 10.9667 153.145 10.66L153.505 8.3C153.545 7.96667 153.732 7.8 154.065 7.8H164.105C164.439 7.8 164.632 7.96667 164.685 8.3L165.125 10.68C165.152 10.8133 165.132 10.92 165.065 11C164.999 11.08 164.905 11.12 164.785 11.12H164.545C164.399 11.12 164.245 11.0067 164.085 10.78C163.925 10.54 163.785 10.28 163.665 10C163.545 9.72 163.379 9.46667 163.165 9.24C162.952 9 162.719 8.88 162.465 8.88H160.285V20.34C160.285 20.6333 160.419 20.9 160.685 21.14C160.952 21.3667 161.085 21.54 161.085 21.66V21.72C161.085 21.9067 160.939 22 160.645 22H157.525Z" fill="#36342F"/>
</svg>
