<svg width="36" height="36" viewBox="0 0 36 36" fill="none" xmlns="http://www.w3.org/2000/svg">
<g clip-path="url(#clip0_130_1685)">
<path d="M17.5193 25L17.0697 24.583C16.45 24.0213 11.0386 18.9635 11.0386 15.2637C11.0386 11.3902 13.9401 8.25 17.5193 8.25C21.0985 8.25 24 11.3902 24 15.2637C24 18.9635 18.5886 24.0214 17.9714 24.5857L17.5193 25ZM17.5193 9.76658C14.7153 9.77001 12.4431 12.2292 12.4399 15.2637C12.4399 17.588 15.7692 21.3009 17.5193 23.0003C19.2694 21.3002 22.5987 17.5851 22.5987 15.2637C22.5955 12.2292 20.3233 9.77004 17.5193 9.76658Z" fill="#FFFEFA" stroke="#FFFEFA" stroke-width="15"/>
<path d="M17.9368 36.012L16.8912 35.1157C15.4497 33.9088 2.86328 23.0387 2.86328 15.0874C2.86328 6.76258 9.61194 0.013916 17.9368 0.013916C26.2617 0.013916 33.0103 6.76258 33.0103 15.0874C33.0103 23.0387 20.4239 33.9088 18.9884 35.1217L17.9368 36.012ZM17.9368 3.27325C11.4151 3.28063 6.13007 8.56567 6.12269 15.0874C6.12269 20.0825 13.8663 28.0621 17.9368 31.7144C22.0073 28.0607 29.7509 20.0765 29.7509 15.0874C29.7435 8.56567 24.4586 3.28071 17.9368 3.27325Z" fill="#18945C"/>
<path d="M25.0947 11.8289C25.1147 11.8029 25.1454 11.7675 25.1894 11.7235C25.712 11.2015 26 10.5068 26 9.76745C26 9.02808 25.712 8.33339 25.1894 7.8107C24.6674 7.28801 23.9728 7 23.2328 7C22.4929 7 21.7996 7.28801 21.2769 7.81003C21.2336 7.85404 21.1983 7.8847 21.1716 7.90537C21.1429 7.8827 21.1063 7.8507 21.0629 7.81137C20.4596 7.26534 19.7957 7 19.033 7C17.5078 7 16.2672 8.24139 16.2885 9.80278C16.1525 9.79012 15.6879 9.80012 15.6879 9.80012C14.0973 9.80012 12.8 11.0775 12.7667 12.6802C12.7327 12.6916 12.556 12.7416 12.5107 12.7576C11.4081 13.1476 10.6668 14.1963 10.6668 15.3664C10.6668 16.4444 11.9481 18.4698 12.6107 19.4465L10.1955 21.862C9.93484 22.1226 9.93484 22.544 10.1955 22.8047C10.3255 22.9347 10.4961 23 10.6668 23C10.8375 23 11.0081 22.9347 11.1381 22.8047L13.5533 20.3892C14.5299 21.0526 16.5552 22.3333 17.6331 22.3333C18.803 22.3333 19.8517 21.5926 20.2423 20.4886C20.2576 20.4446 20.3083 20.2666 20.3196 20.2326C21.9109 20.2106 23.1988 18.9092 23.1988 17.3118C23.1988 17.1591 23.1881 16.9751 23.1741 16.7917L23.2321 16.7324C24.7574 16.7324 25.9987 15.4917 25.9987 13.9663C25.9987 13.2036 25.734 12.5396 25.1874 11.9362C25.1474 11.8929 25.1167 11.8562 25.0934 11.8275L25.0947 11.8289ZM24.2001 12.8322C24.5267 13.1936 24.6661 13.5336 24.6661 13.9676C24.6661 14.7583 24.0228 15.4004 23.2208 15.4004C22.8368 15.4004 22.4669 15.5637 22.2069 15.847C21.9455 16.131 21.8142 16.5151 21.8456 16.8984C21.8575 17.0444 21.8662 17.1918 21.8662 17.3131C21.8662 18.1878 21.1543 18.9005 20.279 18.9005C19.6337 18.9005 19.1857 19.3305 18.9857 20.0452C18.783 20.6166 18.2404 21.0013 17.6338 21.0013C17.1391 21.0013 15.7539 20.2486 14.5153 19.4292L19.1384 14.8057C19.399 14.545 19.399 14.1236 19.1384 13.863C18.8777 13.6023 18.4564 13.6023 18.1957 13.863L13.5726 18.4865C12.7527 17.2484 12.0007 15.8624 12.0007 15.3677C12.0007 14.761 12.3847 14.2176 12.956 14.0163C13.6706 13.8156 14.1013 13.3669 14.1013 12.7222C14.1013 11.8475 14.8132 11.1348 15.6885 11.1348C15.6885 11.1348 16.0852 11.1242 16.1798 11.1328C16.5572 11.1662 16.9085 11.0462 17.1718 10.8028C17.4478 10.5488 17.6004 10.1855 17.6011 9.76812C17.6011 8.97742 18.2437 8.33472 19.0337 8.33472C19.4677 8.33472 19.8077 8.47406 20.169 8.80074C20.429 9.03675 21.2189 9.75412 22.2202 8.75474C22.7622 8.21272 23.7055 8.21338 24.2468 8.75474C24.5174 9.02542 24.6667 9.38477 24.6667 9.76878C24.6667 10.1528 24.5174 10.5108 24.2461 10.7822C23.2481 11.7822 23.9648 12.5742 24.2008 12.8336L24.2001 12.8322Z" fill="#18945C"/>
</g>
<defs>
<clipPath id="clip0_130_1685">
<rect width="36" height="36" fill="white"/>
</clipPath>
</defs>
</svg>
