<svg width="129" height="32" viewBox="0 0 129 32" fill="none" xmlns="http://www.w3.org/2000/svg">
<rect x="1" y="1" width="127" height="30" rx="15" fill="#FFFEFA"/>
<path d="M29.0947 12.8289C29.1147 12.8029 29.1454 12.7675 29.1894 12.7235C29.712 12.2015 30 11.5068 30 10.7674C30 10.0281 29.712 9.33339 29.1894 8.8107C28.6674 8.28801 27.9728 8 27.2328 8C26.4928 8 25.7996 8.28801 25.2769 8.81003C25.2336 8.85404 25.1982 8.8847 25.1716 8.90537C25.1429 8.8827 25.1063 8.8507 25.0629 8.81137C24.4596 8.26534 23.7957 8 23.033 8C21.5078 8 20.2672 9.24139 20.2885 10.8028C20.1525 10.7901 19.6879 10.8001 19.6879 10.8001C18.0973 10.8001 16.8 12.0775 16.7667 13.6802C16.7327 13.6916 16.556 13.7416 16.5107 13.7576C15.4081 14.1476 14.6668 15.1963 14.6668 16.3663C14.6668 17.4444 15.9481 19.4698 16.6107 20.4465L14.1955 22.862C13.9348 23.1226 13.9348 23.544 14.1955 23.8047C14.3255 23.9347 14.4961 24 14.6668 24C14.8375 24 15.0081 23.9347 15.1381 23.8047L17.5533 21.3892C18.5299 22.0526 20.5552 23.3333 21.6331 23.3333C22.803 23.3333 23.8517 22.5926 24.2423 21.4886C24.2576 21.4446 24.3083 21.2666 24.3196 21.2326C25.9109 21.2106 27.1988 19.9092 27.1988 18.3118C27.1988 18.1591 27.1881 17.9751 27.1741 17.7917L27.2321 17.7324C28.7574 17.7324 29.9987 16.4917 29.9987 14.9663C29.9987 14.2036 29.734 13.5396 29.1874 12.9362C29.1474 12.8929 29.1167 12.8562 29.0934 12.8275L29.0947 12.8289ZM28.2001 13.8322C28.5267 14.1936 28.6661 14.5336 28.6661 14.9676C28.6661 15.7583 28.0228 16.4004 27.2208 16.4004C26.8368 16.4004 26.4669 16.5637 26.2069 16.847C25.9455 17.131 25.8142 17.5151 25.8455 17.8984C25.8575 18.0444 25.8662 18.1918 25.8662 18.3131C25.8662 19.1878 25.1543 19.9005 24.279 19.9005C23.6337 19.9005 23.1857 20.3305 22.9857 21.0452C22.783 21.6166 22.2404 22.0013 21.6338 22.0013C21.1391 22.0013 19.7539 21.2486 18.5153 20.4292L23.1384 15.8057C23.399 15.545 23.399 15.1236 23.1384 14.863C22.8777 14.6023 22.4564 14.6023 22.1957 14.863L17.5726 19.4865C16.7527 18.2484 16.0007 16.8624 16.0007 16.3677C16.0007 15.761 16.3847 15.2176 16.956 15.0163C17.6706 14.8156 18.1013 14.3669 18.1013 13.7222C18.1013 12.8475 18.8132 12.1348 19.6885 12.1348C19.6885 12.1348 20.0852 12.1242 20.1798 12.1328C20.5572 12.1662 20.9085 12.0462 21.1718 11.8028C21.4478 11.5488 21.6004 11.1855 21.6011 10.7681C21.6011 9.97742 22.2437 9.33472 23.0337 9.33472C23.4677 9.33472 23.8077 9.47406 24.169 9.80074C24.429 10.0368 25.2189 10.7541 26.2202 9.75474C26.7622 9.21272 27.7055 9.21338 28.2468 9.75474C28.5174 10.0254 28.6667 10.3848 28.6667 10.7688C28.6667 11.1528 28.5174 11.5108 28.2461 11.7822C27.2481 12.7822 27.9648 13.5742 28.2008 13.8336L28.2001 13.8322Z" fill="#36342F"/>
<path d="M37.192 21V16.008L33.368 9.56H34.936L37.928 14.872L40.808 9.56H42.2L38.584 16.024V21H37.192ZM45.1275 21.144C43.5755 21.144 42.3435 20.392 42.3435 18.68C42.3435 16.744 44.3915 16.088 46.5355 16.088H47.7355V15.48C47.7355 14.152 47.2235 13.592 45.9435 13.592C44.7915 13.592 44.1515 14.072 44.0235 15.096H42.6955C42.8715 13.192 44.3915 12.488 46.0075 12.488C47.6075 12.488 49.0635 13.144 49.0635 15.48V21H47.7355V19.944C47.1115 20.728 46.3595 21.144 45.1275 21.144ZM45.2555 20.088C46.6635 20.088 47.7355 19.368 47.7355 18.072V17.032H46.5835C44.9035 17.032 43.6715 17.448 43.6715 18.68C43.6715 19.544 44.0875 20.088 45.2555 20.088ZM51.6721 21V12.632H53.0001V14.136C53.5281 13.192 54.2481 12.536 55.7521 12.488V13.736C54.0721 13.816 53.0001 14.344 53.0001 16.408V21H51.6721ZM60.6054 21.144C58.4134 21.144 56.8294 19.592 56.8294 16.984V16.856C56.8294 14.296 58.4294 12.488 60.7334 12.488C62.1254 12.488 62.9894 13.16 63.4694 13.976V8.632H64.7974V21H63.4694V19.56C62.9894 20.376 61.8214 21.144 60.6054 21.144ZM60.7494 20.04C62.3014 20.04 63.5174 19.016 63.5174 16.872V16.744C63.5174 14.6 62.4934 13.592 60.8614 13.592C59.1974 13.592 58.2054 14.76 58.2054 16.792V16.92C58.2054 19.032 59.3414 20.04 60.7494 20.04ZM73.399 21L70.823 12.632H72.263L74.215 19.368L76.247 12.632H77.399L79.303 19.368L81.271 12.632H82.631L80.023 21H78.551L76.807 14.728L74.855 21H73.399ZM86.3619 21.144C84.8099 21.144 83.5779 20.392 83.5779 18.68C83.5779 16.744 85.6259 16.088 87.7699 16.088H88.9699V15.48C88.9699 14.152 88.4579 13.592 87.1779 13.592C86.0259 13.592 85.3859 14.072 85.2579 15.096H83.9299C84.1059 13.192 85.6259 12.488 87.2419 12.488C88.8419 12.488 90.2979 13.144 90.2979 15.48V21H88.9699V19.944C88.3459 20.728 87.5939 21.144 86.3619 21.144ZM86.4899 20.088C87.8979 20.088 88.9699 19.368 88.9699 18.072V17.032H87.8179C86.1379 17.032 84.9059 17.448 84.9059 18.68C84.9059 19.544 85.3219 20.088 86.4899 20.088ZM95.4985 21.144C93.4985 21.144 92.2985 20.136 92.2185 18.424H93.5145C93.6105 19.416 94.1385 20.04 95.4825 20.04C96.7465 20.04 97.3065 19.608 97.3065 18.712C97.3065 17.832 96.6505 17.544 95.3545 17.304C93.1785 16.904 92.4425 16.296 92.4425 14.84C92.4425 13.288 93.9625 12.488 95.2745 12.488C96.7785 12.488 98.0745 13.096 98.2985 14.904H97.0185C96.8265 13.992 96.3145 13.592 95.2585 13.592C94.2985 13.592 93.6745 14.072 93.6745 14.792C93.6745 15.544 94.0905 15.848 95.6265 16.12C97.3545 16.44 98.5705 16.824 98.5705 18.6C98.5705 20.12 97.5305 21.144 95.4985 21.144ZM103.138 21.112C101.618 21.112 100.882 20.216 100.882 18.904V13.752H99.682V12.632H100.882V10.728H102.21V12.632H104.162V13.752H102.21V18.776C102.21 19.592 102.578 19.992 103.25 19.992C103.666 19.992 103.986 19.928 104.274 19.816V20.936C104.002 21.032 103.682 21.112 103.138 21.112ZM109.706 21.144C107.338 21.144 105.658 19.48 105.658 16.904V16.776C105.658 14.248 107.274 12.488 109.578 12.488C111.514 12.488 113.338 13.656 113.338 16.648V17.08H107.034C107.098 18.984 108.01 20.04 109.722 20.04C111.018 20.04 111.77 19.56 111.946 18.584H113.274C112.986 20.264 111.594 21.144 109.706 21.144ZM107.082 16.008H111.978C111.85 14.28 110.954 13.592 109.578 13.592C108.218 13.592 107.306 14.52 107.082 16.008Z" fill="#36342F"/>
<rect x="1" y="1" width="127" height="30" rx="15" stroke="#36342F" stroke-width="2"/>
</svg>
